<svg width="188" height="76" viewBox="0 0 188 76" fill="none" xmlns="http://www.w3.org/2000/svg">
<path d="M21.88 20.64C21.88 11.24 7.99999 13.44 7.99999 8.56002C7.99999 6.80002 9.23999 5.96002 10.88 6.00002C12.72 6.04002 14 7.12002 14.12 8.92002H21.52C21.24 3.56002 17.12 0.52002 11 0.52002C5.11999 0.52002 0.759993 3.48002 0.759993 8.80002C0.679993 18.76 14.72 15.96 14.72 21.16C14.72 22.8 13.44 23.8 11.44 23.8C9.51999 23.8 8.15999 22.76 7.95999 20.6H0.679993C0.879993 26.28 5.59999 29.28 11.64 29.28C18.2 29.28 21.88 25.36 21.88 20.64Z" fill="#F8F8F2"/>
<path d="M32.9294 9.84002V6.68002H26.0894V39.64H32.9294V25.88C34.1694 27.76 36.5294 29.32 39.8094 29.32C45.2894 29.32 49.6494 24.84 49.6494 17.8C49.6494 10.76 45.2894 6.36002 39.8094 6.36002C36.5294 6.36002 34.1694 7.88002 32.9294 9.84002ZM42.6894 17.8C42.6894 21.36 40.3694 23.36 37.7694 23.36C35.2094 23.36 32.8894 21.4 32.8894 17.84C32.8894 14.28 35.2094 12.32 37.7694 12.32C40.3694 12.32 42.6894 14.24 42.6894 17.8Z" fill="#F8F8F2"/>
<path d="M51.8778 17.8C51.8778 24.84 56.2378 29.32 61.6778 29.32C64.9978 29.32 67.3578 27.8 68.5978 25.84V29H75.4378V6.68002H68.5978V9.84002C67.3978 7.88002 65.0378 6.36002 61.7178 6.36002C56.2378 6.36002 51.8778 10.76 51.8778 17.8ZM68.5978 17.84C68.5978 21.4 66.3178 23.36 63.7178 23.36C61.1578 23.36 58.8378 21.36 58.8378 17.8C58.8378 14.24 61.1578 12.32 63.7178 12.32C66.3178 12.32 68.5978 14.28 68.5978 17.84Z" fill="#F8F8F2"/>
<path d="M79.0262 17.84C79.0262 24.92 83.6662 29.32 90.2262 29.32C95.8262 29.32 99.7862 26.08 100.946 20.92H93.6662C93.0662 22.56 91.9862 23.48 90.1062 23.48C87.6662 23.48 85.9862 21.56 85.9862 17.84C85.9862 14.12 87.6662 12.2 90.1062 12.2C91.9862 12.2 93.1062 13.2 93.6662 14.76H100.946C99.7862 9.44002 95.8262 6.36002 90.2262 6.36002C83.6662 6.36002 79.0262 10.8 79.0262 17.84Z" fill="#F8F8F2"/>
<path d="M114.445 11.84C116.725 11.84 118.645 13.24 118.645 15.68H110.085C110.485 13.2 112.205 11.84 114.445 11.84ZM125.125 21.6H117.845C117.285 22.8 116.205 23.76 114.285 23.76C112.085 23.76 110.285 22.4 110.045 19.48H125.525C125.605 18.8 125.645 18.12 125.645 17.48C125.645 10.68 121.045 6.36002 114.525 6.36002C107.885 6.36002 103.245 10.76 103.245 17.84C103.245 24.92 107.965 29.32 114.525 29.32C120.085 29.32 124.045 25.96 125.125 21.6Z" fill="#F8F8F2"/>
<path d="M67.5019 41.12V69H80.9019V66.04H71.1419V41.12H67.5019Z" fill="#8BE9FD"/>
<path d="M84.7675 69H88.4075V47.08H84.7675V69ZM86.6475 43.52C87.9675 43.52 89.0475 42.44 89.0475 41.04C89.0475 39.64 87.9675 38.56 86.6475 38.56C85.2475 38.56 84.1675 39.64 84.1675 41.04C84.1675 42.44 85.2475 43.52 86.6475 43.52Z" fill="#8BE9FD"/>
<path d="M110.371 63.04C110.211 55.2 97.4912 58.04 97.4912 52.84C97.4912 51.08 99.0912 49.8 101.771 49.8C104.691 49.8 106.371 51.4 106.531 53.6H110.171C109.931 49.32 106.731 46.72 101.891 46.72C97.0112 46.72 93.8512 49.48 93.8512 52.84C93.8512 61 106.811 58.16 106.811 63.04C106.811 64.84 105.211 66.28 102.331 66.28C99.2512 66.28 97.3712 64.68 97.1712 62.56H93.4112C93.6512 66.56 97.2512 69.36 102.371 69.36C107.211 69.36 110.371 66.64 110.371 63.04Z" fill="#8BE9FD"/>
<path d="M116.31 63C116.31 67.4 118.51 69 122.39 69H125.67V65.92H122.99C120.75 65.92 119.95 65.16 119.95 63V50.08H125.67V47.08H119.95V41.56H116.31V47.08H113.47V50.08H116.31V63Z" fill="#8BE9FD"/>
<path d="M153.415 59.8547L153.416 69.3001C153.416 69.904 153.903 70.3918 154.507 70.3918C154.809 70.384 155.08 70.2679 155.281 70.0666C155.475 69.873 155.599 69.5943 155.599 69.3001L155.599 59.8547C155.599 59.2508 155.111 58.7631 154.507 58.7631C153.903 58.7631 153.415 59.2509 153.415 59.8547Z" fill="#BD93F9"/>
<path d="M145.062 58.763C144.458 58.763 143.97 59.2506 143.97 59.8545L143.97 69.2999C143.97 69.9038 144.458 70.3916 145.062 70.3916C145.364 70.3838 145.635 70.2677 145.836 70.0664C146.037 69.8651 146.154 69.5941 146.154 69.2999L146.153 59.8545C146.153 59.2507 145.666 58.763 145.062 58.763Z" fill="#FF79C6"/>
<path d="M149.783 0.449521C149.489 0.449521 149.202 0.56566 149.001 0.782446C148.885 0.898581 146.106 3.75535 143.311 8.37738C140.71 12.6665 137.621 19.3324 137.659 26.7415C137.66 30.4423 138.426 33.9494 139.502 37.0695L130.127 46.445C129.794 46.7779 129.717 47.2889 129.918 47.707L134.641 57.1524C134.796 57.4621 135.098 57.6866 135.446 57.7408C135.794 57.795 136.15 57.6866 136.398 57.4389L145.464 48.373C147.384 51.0519 148.917 52.6313 149.002 52.7164C149.211 52.9255 149.49 53.0493 149.784 53.0493C150.078 53.0493 150.349 52.9332 150.558 52.7242L150.566 52.7164C150.651 52.6313 152.184 51.0519 154.104 48.3732L163.17 57.4393C163.418 57.6871 163.767 57.8032 164.123 57.7413C164.347 57.7026 164.564 57.5942 164.719 57.4393C164.804 57.3542 164.866 57.2613 164.928 57.1529L169.65 47.7076C169.859 47.2818 169.774 46.7785 169.441 46.4456L160.065 37.0698C161.149 33.9574 161.916 30.4503 161.916 26.7496C161.947 19.3327 158.857 12.6666 156.264 8.3852C153.468 3.76325 150.689 0.906319 150.573 0.790184C150.356 0.573398 150.077 0.449521 149.783 0.449521ZM144.217 46.5227L135.926 54.8143L132.233 47.436L140.362 39.3069C141.291 41.5367 142.344 43.5031 143.335 45.129C143.629 45.6091 143.923 46.0736 144.217 46.5227ZM167.335 47.4367L163.643 54.8148L155.358 46.5306C155.653 46.0815 155.939 45.6247 156.241 45.137C157.232 43.5112 158.277 41.537 159.214 39.315L167.335 47.4367ZM154.421 9.56204C156.86 13.5956 159.755 19.8514 159.725 26.7418C159.725 33.6633 156.829 39.9189 154.398 43.9447C152.602 46.9176 150.783 49.1551 149.792 50.3009C147.322 47.4594 139.851 37.9134 139.851 26.7337C139.82 19.8433 142.715 13.5877 145.154 9.55406C146.957 6.57341 148.777 4.32047 149.783 3.17468C150.782 4.32836 152.609 6.57357 154.421 9.56204Z" fill="#F8F8F2"/>
<path d="M145.882 22.7932C148.034 24.9456 151.533 24.9456 153.686 22.7933C155.83 20.6488 155.838 17.1416 153.685 14.9894C151.533 12.8371 148.034 12.837 145.881 14.9892C143.729 17.1414 143.729 20.6408 145.882 22.7932ZM152.137 16.5377C153.415 17.8152 153.415 19.9675 152.137 21.2449C150.86 22.5223 148.708 22.5222 147.43 21.2447C146.153 19.9672 146.153 17.8149 147.43 16.5375C148.7 15.2679 150.867 15.2679 152.137 16.5377Z" fill="#F8F8F2"/>
</svg>
